<svg xmlns="http://www.w3.org/2000/svg" width="210.444" height="167.5" viewBox="0 0 210.444 167.5">
  <g id="Gruppe_28" data-name="Gruppe 28" transform="translate(-1289 -755)">
    <path id="Pfad_5" data-name="Pfad 5" d="M.738,10.2s20.751,19.921,41.5,29.467C63.406,48.8,97.023,55.852,97.023,75.773c0,20.751.423,29.467.423,29.467s-5.819-7.055-11.625-7.055-11.625,7.877-22.411,7.47c-10.791-.83-14.941-5.81-14.941-5.81L61.75,91.963s-21.581,8.3-31.542-4.972c3.731,0,16.182-2.905,17.846-6.653-4.98.83-24.071,4.578-32.372-10.376,2.075,0,24.071.83,24.071-4.976-4.15,0-30.3-1.249-36.522-22.826,2.075,1.249,14.107,5.4,17.431,4.569C17.339,43.825,3.232,30.959.738,19.754c-1.66-5.819,0-9.554,0-9.554Z" transform="translate(1289 768.859)" fill="#fff"/>
    <path id="Pfad_6" data-name="Pfad 6" d="M123.978,10.2s-20.751,19.921-41.5,29.467C61.31,48.8,27.693,55.852,27.693,75.773c0,20.751-.415,29.467-.415,29.467s5.81-7.051,11.621-7.051,11.621,7.877,22.411,7.475c10.791-.83,14.941-5.81,14.941-5.81L62.97,91.968s21.581,8.3,31.55-4.976c-3.735,0-16.186-2.905-17.85-6.649,4.976.826,24.075,4.574,32.376-10.376-2.075,0-24.075.826-24.075-4.976,4.15,0,30.3-1.249,36.526-22.826-2.075,1.245-14.111,5.4-17.431,4.565,3.32-2.905,17.431-15.771,19.921-26.976a18.612,18.612,0,0,0,.415-4.565h0a10.631,10.631,0,0,0-.423-4.989Z" transform="translate(1374.931 768.859)" fill="#fff"/>
    <path id="Differenzmenge_1" data-name="Differenzmenge 1" d="M79.716,66.528a3.014,3.014,0,0,1-1.85-.638L.563,5.362a2.963,2.963,0,0,1-.987-3.34A2.964,2.964,0,0,1,2.413,0h154.6a2.964,2.964,0,0,1,2.836,2.022,2.963,2.963,0,0,1-.987,3.34L81.565,65.89A3.014,3.014,0,0,1,79.716,66.528Zm-59-56.753,59.5,46.7,59.5-46.7Z" transform="translate(1314.285 755)" fill="#fff"/>
    <rect id="Rechteck_3" data-name="Rechteck 3" width="9" height="104.265" transform="translate(1390 814.735)" fill="#fff"/>
    <path id="Rechteck_4" data-name="Rechteck 4" d="M5,0H8A0,0,0,0,1,8,0V95a0,0,0,0,1,0,0H5a5,5,0,0,1-5-5V5A5,5,0,0,1,5,0Z" transform="translate(1441.5 914.5) rotate(90)" fill="#fff"/>
  </g>
</svg>
